<svg width="1920" height="890" viewBox="0 0 1920 890" fill="none" xmlns="http://www.w3.org/2000/svg">
<g clip-path="url(#clip0_3662_2)">
<rect width="1920" height="890" fill="white"/>
<rect width="1920" height="890" fill="url(#paint0_linear_3662_2)"/>
<rect width="1920" height="890" fill="#012740" fill-opacity="0.1"/>
<g clip-path="url(#clip1_3662_2)">
<mask id="mask0_3662_2" style="mask-type:luminance" maskUnits="userSpaceOnUse" x="14" y="27" width="174" height="35">
<path d="M188 27.3438H14V61.6569H188V27.3438Z" fill="white"/>
</mask>
<g mask="url(#mask0_3662_2)">
<mask id="mask1_3662_2" style="mask-type:luminance" maskUnits="userSpaceOnUse" x="14" y="27" width="35" height="35">
<path d="M34.9054 55.4043C37.1457 55.3753 39.2708 55.0493 41.151 54.4118C41.6265 54.2524 42.0731 54.0712 42.5053 53.8829C41.9794 55.1725 41.2159 56.2375 40.2145 57.0417C38.2335 58.5053 35.8995 59.5123 33.3709 59.8963C34.0049 58.795 34.5163 57.2374 34.9054 55.4116M24.3662 58.527C24.3158 58.4908 24.2654 58.4545 24.215 58.4255C23.3361 57.9908 22.9759 56.0202 23.437 52.999C25.1298 53.7669 26.974 54.3683 28.9118 54.7885C30.3814 55.1072 31.8438 55.2957 33.2773 55.3753C32.5785 58.44 31.6781 60.0558 31.0802 60.0558C31.0442 60.0558 31.0081 60.0558 30.9721 60.0702C28.6093 60.0558 26.3761 59.5051 24.3734 58.5414M16.1827 48.7605C16.0459 48.2389 15.9594 47.71 15.9306 47.1738C16.4565 47.9345 17.1048 48.6735 17.8756 49.3909C19.0354 50.4704 20.4114 51.434 21.953 52.2599C21.636 54.0277 21.5496 55.6216 21.7513 56.9113C19.1075 54.8971 17.1264 52.0498 16.1899 48.7605M35.9067 44.4714C35.9067 43.8483 35.8995 43.2252 35.8779 42.6021C37.8517 42.4717 39.6814 41.9573 41.1798 41.0878C42.563 43.8483 43.3122 46.7536 43.3049 49.4995C43.3049 50.2965 43.2329 51.0499 43.1104 51.7673C42.3973 52.2092 41.5761 52.586 40.654 52.8975C39.0187 53.4482 37.1673 53.7524 35.2151 53.8032C35.6834 50.963 35.9139 47.6737 35.9139 44.4714M29.236 53.2235C27.2693 52.8033 25.4108 52.173 23.7323 51.376C24.287 48.8764 25.3099 45.8479 26.9452 42.4861C27.1829 42.0008 27.4206 41.5225 27.6728 41.0516C28.811 41.566 30.05 41.9717 31.3539 42.2544C32.3408 42.4644 33.3278 42.5803 34.3003 42.6166C34.3147 43.218 34.3291 43.8338 34.3291 44.4714C34.3291 48.2316 34.0337 51.347 33.6015 53.7887C32.1824 53.7307 30.72 53.5423 29.2504 53.2235M18.949 48.2171C17.6019 46.9637 16.6726 45.6378 16.2044 44.3192C16.5789 42.8412 17.2993 41.3631 18.3655 39.9431C19.374 38.5955 20.6347 37.3855 22.0754 36.3423C22.4933 37.0958 23.0768 37.8347 23.8187 38.5375C24.5247 39.2041 25.346 39.8055 26.2608 40.3344C26.0087 40.8125 25.7637 41.298 25.5261 41.7978C24.1213 44.6959 22.9687 47.8114 22.2916 50.637C21.0381 49.927 19.9143 49.1155 18.9562 48.2243M34.8261 33.3862C36.627 34.7338 38.2839 36.4799 39.6671 38.5158C39.9264 38.8998 40.1785 39.2983 40.409 39.6896C39.1412 40.4285 37.542 40.8633 35.8058 40.9936C35.6617 38.2405 35.3376 35.5888 34.8189 33.3862M31.6781 40.6966C30.5327 40.4503 29.4377 40.0953 28.4364 39.6533C29.9132 37.0523 31.534 34.7845 33.1332 33.1037C33.6303 35.0816 34.0481 37.7333 34.2282 41.0227C33.3853 40.9864 32.5281 40.885 31.6853 40.6966M24.8993 37.3711C24.2438 36.7552 23.7467 36.1104 23.4081 35.4656C24.8921 34.5672 26.5418 33.8354 28.2923 33.2993C29.3368 32.9877 30.3886 32.7486 31.4403 32.5893C29.9204 34.2991 28.4075 36.4799 27.0173 38.936C26.2248 38.4724 25.5116 37.9507 24.8993 37.3783M21.4847 32.285C21.4631 32.3647 21.4415 32.4444 21.4199 32.5313C21.2614 33.2848 21.2758 34.0528 21.4703 34.8208C19.763 36.0018 18.279 37.4073 17.0976 38.9795C16.7374 39.4577 16.4133 39.9503 16.1251 40.443C17.004 37.1755 18.9202 34.3353 21.4919 32.285M22.9759 32.8646C23.1488 32.0386 23.6458 31.2996 24.4095 30.6838C26.2608 30.1259 28.4148 30.2636 30.6839 31.0968C29.7331 31.2634 28.775 31.488 27.8385 31.7705C26.0879 32.2994 24.4383 33.024 22.9255 33.9006C22.8894 33.5529 22.9039 33.2051 22.9759 32.8646ZM35.849 30.7635C36.3966 30.4085 36.8936 30.1621 37.3114 30.0679C38.111 30.3867 38.8962 30.7997 39.6455 31.3141C38.4424 31.0098 37.1673 30.8287 35.849 30.7635ZM33.1765 29.0536C33.8176 29.1261 34.5091 29.2347 35.2151 29.4014C34.7757 29.6405 34.3147 29.9375 33.8464 30.2998C33.6375 29.8288 33.4142 29.4159 33.1765 29.0536ZM31.4547 29.6839C30.7344 29.4086 30.0284 29.1913 29.3296 29.0391C29.8915 28.9739 30.4606 28.9377 31.0369 28.9377C31.3035 28.9377 31.6348 29.271 31.9878 29.9013C31.8149 29.8288 31.6348 29.7491 31.4619 29.6839M14 44.5003C14 46.1305 14.2305 47.71 14.6555 49.2024C14.6844 49.3039 14.706 49.4053 14.7348 49.5068C14.7348 49.5285 14.7492 49.5429 14.7564 49.5647C16.9103 56.5635 23.4009 61.6642 31.0586 61.6642C34.6028 61.6642 37.8949 60.5701 40.6252 58.7081C40.654 58.6936 40.6828 58.6791 40.7044 58.6647C40.8701 58.556 41.0213 58.44 41.1726 58.3169C44.3135 55.9839 46.6331 52.6004 47.6056 48.6808C47.6632 48.4996 47.7065 48.3185 47.7497 48.1301C47.7569 48.0867 47.7641 48.0432 47.7641 47.9998C47.9946 46.8767 48.117 45.703 48.117 44.5148C48.117 42.1964 47.6632 39.9503 46.7772 37.8347C46.6043 37.429 46.1433 37.2407 45.7398 37.4073C45.3364 37.5812 45.1492 38.0449 45.3148 38.4506C46.1217 40.3706 46.5322 42.4064 46.5322 44.5076C46.5322 45.7972 46.3738 47.0434 46.0784 48.2461C45.8479 48.9996 45.4301 49.7024 44.861 50.3327C44.8753 50.0646 44.8826 49.7893 44.8826 49.5068C44.8826 46.442 44.047 43.2106 42.4837 40.175C43.6291 39.1896 44.3568 37.9652 44.6088 36.5958C44.6881 36.1611 44.4071 35.7482 43.9749 35.6685C43.5427 35.5888 43.1321 35.8713 43.0529 36.306C42.8872 37.2116 42.4189 38.0376 41.6913 38.7404C41.4608 38.3636 41.2303 37.9869 40.9781 37.6174C39.5878 35.567 37.9309 33.7847 36.1228 32.3719C38.5145 32.5313 40.726 33.1109 42.5053 34.1107C42.7863 34.2701 43.1537 34.2629 43.413 34.0455C43.7516 33.763 43.7948 33.2631 43.5139 32.9225C40.9566 29.3289 36.5334 27.3438 31.0586 27.3438C21.6504 27.3438 14 35.0382 14 44.5003Z" fill="white"/>
</mask>
<g mask="url(#mask1_3662_2)">
<path d="M48.117 27.3438H14V61.6569H48.117V27.3438Z" fill="white"/>
</g>
<path d="M184.089 39.4868C186.61 39.4868 188 40.7112 188 42.9427C188 45.0438 186.631 46.3045 184.341 46.3045H182.735V49.5213H180.609V39.4868H184.089ZM182.735 44.5512H184.002C185.234 44.5512 185.861 44.0078 185.861 42.9355C185.861 41.8632 185.177 41.2546 183.938 41.2546H182.735V44.5512ZM176.698 45.5002C176.698 46.971 176.136 47.6883 174.983 47.6883C173.83 47.6883 173.225 46.9493 173.225 45.5002V39.4868H171.1V45.3554C171.1 46.7899 171.453 47.8839 172.159 48.594C172.815 49.2605 173.766 49.5938 174.983 49.5938C176.734 49.5938 178.823 48.8548 178.823 45.3481V39.4723H176.698V45.4858V45.5002ZM165.308 39.3998C167.462 39.3998 169.768 40.7402 169.768 44.5149C169.768 48.2897 167.462 49.601 165.308 49.601C163.155 49.601 160.835 48.2679 160.835 44.5149C160.835 40.762 163.148 39.3998 165.308 39.3998ZM165.308 47.7318C166.152 47.7318 167.57 47.3116 167.57 44.5149C167.57 41.7183 166.152 41.2981 165.308 41.2981C163.839 41.2981 163.032 42.4428 163.032 44.5149C163.032 46.5871 163.839 47.7318 165.308 47.7318ZM158.645 46.4784C158.998 47.1957 159.301 47.8187 159.999 47.8187H160.504V49.4707L160.432 49.4924C160.432 49.4924 160.05 49.5938 159.401 49.5938C157.723 49.5938 157.211 48.4346 156.758 47.4057C156.383 46.5654 156.066 45.8408 155.187 45.8408H154.251V49.5213H152.126V39.4868H155.663C158.249 39.4868 159.452 40.5011 159.452 42.6746C159.452 44.0223 158.645 44.8482 157.845 45.2105C158.198 45.5582 158.429 46.0219 158.652 46.4784M154.244 44.1744H155.432C156.613 44.1744 157.348 43.6238 157.348 42.7254C157.348 41.7907 156.707 41.2546 155.591 41.2546H154.251V44.1744H154.244ZM146.463 45.848H148.653V45.9567C148.653 46.6088 148.423 47.6955 146.895 47.6955C145.455 47.6955 144.591 46.5074 144.591 44.5077C144.591 42.508 145.412 41.2909 146.853 41.2909C148.559 41.2909 148.624 43.0296 148.624 43.1021V43.2181L150.613 42.9065V42.8196C150.613 42.0951 149.972 39.3926 146.83 39.3926C144.014 39.3926 142.401 41.2546 142.401 44.5077C142.401 47.7608 144.065 49.5938 146.86 49.5938C149.655 49.5938 150.663 47.6231 150.663 45.9422V44.1962H146.471V45.8408L146.463 45.848ZM140.102 39.4868H137.574L134.275 44.0005V39.4868H132.12V49.5213H134.275V44.9062L137.661 49.5213H140.218L136.356 44.4642L140.102 39.494V39.4868ZM128.087 45.6814L124.6 39.4868H122.446V49.5213H124.571V43.5368L128.043 49.5213H130.212V39.4868H128.087V45.6814ZM118.239 39.552L121.877 49.5213H119.665L118.816 47.0652H115.495L114.673 49.5213H112.447L116.107 39.4868H118.218L118.239 39.552ZM117.159 42.2182L116.078 45.3843H118.26L117.159 42.2182ZM110.473 44.2251C111.237 44.4498 112.246 45.1525 112.246 46.6595C112.246 48.4708 110.971 49.5141 108.737 49.5141H104.53V39.4795H108.334C110.495 39.4795 111.59 40.3851 111.59 42.1748C111.59 43.5585 110.963 44.0512 110.48 44.2179M108.104 43.5876C108.989 43.5876 109.4 43.2108 109.4 42.4066C109.4 41.6024 108.874 41.2546 107.837 41.2546H106.648V43.5803H108.096L108.104 43.5876ZM106.655 47.7463H108.319C109.407 47.7463 109.912 47.3333 109.912 46.4566C109.912 45.3771 109.025 45.1525 108.276 45.1525H106.655V47.7463ZM95.7772 39.4868C98.8824 39.4868 100.734 41.4212 100.734 44.6743C100.734 47.9274 99.0769 49.5213 96.1956 49.5213H92.8169V39.4868H95.7772ZM94.942 47.7463H96.1814C97.7079 47.7463 98.6229 46.5871 98.6229 44.6454C98.6229 42.3993 97.658 41.2618 95.7488 41.2618H94.942V47.7463ZM87.5077 39.4868H85.3826V49.5213H91.8227V47.7463H87.5077V39.4868ZM82.5226 46.4784C82.8756 47.1957 83.1782 47.8187 83.877 47.8187H84.3813V49.4707L84.3092 49.4924C84.3092 49.4924 83.9274 49.5938 83.2791 49.5938C81.6006 49.5938 81.0891 48.4346 80.6353 47.4057C80.2607 46.5654 79.9437 45.8408 79.0649 45.8408H78.1283V49.5213H76.0033V39.4868H79.5403C82.1193 39.4868 83.3295 40.5011 83.3295 42.6746C83.3295 44.0223 82.5226 44.8482 81.723 45.2105C82.076 45.5582 82.3066 46.0219 82.5298 46.4784M78.1283 44.1744H79.317C80.4984 44.1744 81.226 43.6238 81.226 42.7254C81.226 41.7907 80.5848 41.2546 79.4682 41.2546H78.1283V44.1744ZM70.3339 39.3998C72.4878 39.3998 74.793 40.7402 74.793 44.5149C74.793 48.2897 72.4878 49.601 70.3339 49.601C68.18 49.601 65.8675 48.2679 65.8675 44.5149C65.8675 40.762 68.18 39.3998 70.3339 39.3998ZM70.3339 47.7318C71.1767 47.7318 72.5959 47.3116 72.5959 44.5149C72.5959 41.7183 71.1767 41.2981 70.3339 41.2981C68.8643 41.2981 68.0575 42.4428 68.0575 44.5149C68.0575 46.5871 68.8643 47.7318 70.3339 47.7318ZM63.1589 39.4868H65.5578L62.6907 49.5213H60.2918L58.5485 43.2326L56.7836 49.5213H54.3847L51.5176 39.4868H53.9885L55.667 46.8044L57.6769 39.4868H59.4634L61.4084 46.8044L63.1517 39.4868H63.1589Z" fill="white"/>
</g>
</g>
<path d="M202 40C202 17.9086 219.909 0 242 0H1920V890H202V40Z" fill="#E8EEF2"/>
<path d="M70.6318 335.766H64.874V340.396H70.1807V342.555H64.874V349H62.3174V333.596H70.6318V335.766ZM76.0029 349H73.3711V333.596H76.0029V349ZM88.335 349H79.8057V333.596H82.3623V346.841H88.335V349ZM99.1201 335.766H94.6943V349H92.1377V335.766H87.7227V333.596H99.1201V335.766ZM113.278 349H110.292L107.832 344.875C107.61 344.495 107.392 344.173 107.177 343.908C106.969 343.636 106.754 343.414 106.532 343.242C106.317 343.07 106.081 342.945 105.823 342.866C105.565 342.787 105.275 342.748 104.953 342.748H103.922V349H101.376V333.596H106.446C107.17 333.596 107.836 333.682 108.444 333.854C109.053 334.025 109.583 334.287 110.034 334.638C110.485 334.981 110.836 335.415 111.087 335.938C111.345 336.453 111.474 337.058 111.474 337.753C111.474 338.297 111.391 338.799 111.227 339.257C111.069 339.708 110.84 340.113 110.539 340.471C110.245 340.822 109.887 341.122 109.465 341.373C109.049 341.624 108.58 341.817 108.058 341.953V341.996C108.337 342.154 108.58 342.329 108.788 342.522C108.996 342.709 109.193 342.902 109.379 343.103C109.565 343.303 109.748 343.532 109.927 343.79C110.113 344.041 110.317 344.334 110.539 344.671L113.278 349ZM103.922 335.669V340.675H106.049C106.443 340.675 106.804 340.614 107.134 340.492C107.47 340.37 107.76 340.195 108.004 339.966C108.247 339.737 108.437 339.457 108.573 339.128C108.709 338.799 108.777 338.43 108.777 338.021C108.777 337.284 108.545 336.707 108.079 336.292C107.614 335.877 106.944 335.669 106.07 335.669H103.922ZM121.217 349.258C118.997 349.258 117.217 348.538 115.878 347.099C114.546 345.659 113.88 343.786 113.88 341.48C113.88 339.003 114.56 337.026 115.921 335.551C117.282 334.076 119.129 333.338 121.464 333.338C123.627 333.338 125.367 334.054 126.685 335.486C128.009 336.919 128.672 338.791 128.672 341.104C128.672 343.618 127.995 345.605 126.642 347.066C125.288 348.527 123.48 349.258 121.217 349.258ZM121.335 335.583C119.924 335.583 118.775 336.109 117.887 337.162C117.006 338.215 116.565 339.601 116.565 341.319C116.565 343.031 116.995 344.41 117.854 345.455C118.714 346.501 119.838 347.023 121.228 347.023C122.703 347.023 123.867 346.526 124.719 345.53C125.571 344.535 125.997 343.142 125.997 341.352C125.997 339.511 125.582 338.09 124.751 337.087C123.927 336.084 122.789 335.583 121.335 335.583ZM130.788 348.388V345.756C131.024 345.971 131.304 346.164 131.626 346.336C131.955 346.508 132.303 346.655 132.668 346.776C133.033 346.891 133.398 346.98 133.764 347.045C134.129 347.109 134.465 347.142 134.773 347.142C135.848 347.142 136.646 346.963 137.169 346.604C137.699 346.246 137.964 345.727 137.964 345.047C137.964 344.682 137.874 344.367 137.695 344.102C137.523 343.829 137.28 343.582 136.965 343.36C136.65 343.138 136.277 342.927 135.848 342.727C135.425 342.519 134.97 342.304 134.483 342.082C133.961 341.803 133.474 341.52 133.022 341.233C132.571 340.947 132.177 340.632 131.841 340.288C131.511 339.937 131.25 339.543 131.057 339.106C130.87 338.67 130.777 338.158 130.777 337.57C130.777 336.847 130.938 336.22 131.261 335.69C131.59 335.153 132.02 334.713 132.55 334.369C133.087 334.018 133.696 333.76 134.376 333.596C135.056 333.424 135.751 333.338 136.46 333.338C138.071 333.338 139.246 333.521 139.983 333.886V336.41C139.11 335.78 137.985 335.465 136.61 335.465C136.231 335.465 135.851 335.501 135.472 335.572C135.099 335.644 134.763 335.762 134.462 335.927C134.168 336.091 133.928 336.303 133.742 336.561C133.556 336.818 133.463 337.13 133.463 337.495C133.463 337.839 133.535 338.136 133.678 338.387C133.821 338.637 134.029 338.867 134.301 339.074C134.58 339.282 134.917 339.486 135.311 339.687C135.712 339.88 136.174 340.091 136.696 340.32C137.233 340.6 137.738 340.893 138.211 341.201C138.691 341.509 139.11 341.849 139.468 342.222C139.833 342.594 140.119 343.009 140.327 343.468C140.542 343.919 140.649 344.435 140.649 345.015C140.649 345.795 140.492 346.454 140.177 346.991C139.862 347.528 139.436 347.965 138.898 348.302C138.368 348.638 137.756 348.882 137.062 349.032C136.367 349.183 135.633 349.258 134.859 349.258C134.602 349.258 134.283 349.236 133.903 349.193C133.531 349.158 133.148 349.1 132.754 349.021C132.36 348.95 131.988 348.86 131.637 348.753C131.286 348.646 131.003 348.524 130.788 348.388Z" fill="white"/>
</g>
<defs>
<linearGradient id="paint0_linear_3662_2" x1="-2.45913e-06" y1="372" x2="213.5" y2="372" gradientUnits="userSpaceOnUse">
<stop stop-color="#064671"/>
<stop offset="1" stop-color="#012740"/>
</linearGradient>
<clipPath id="clip0_3662_2">
<rect width="1920" height="890" fill="white"/>
</clipPath>
<clipPath id="clip1_3662_2">
<rect width="174" height="35" fill="white" transform="translate(14 27)"/>
</clipPath>
</defs>
</svg>
